<svg width="24" height="19" viewBox="0 0 24 19" fill="none" xmlns="http://www.w3.org/2000/svg">
<path d="M16.3359 5.50856C16.1328 5.50856 15.957 5.44687 15.8086 5.3235C15.6602 5.20013 15.5859 5.05404 15.5859 4.88522C15.5859 4.55406 15.6602 4.2359 15.8086 3.93072C15.957 3.62555 16.1758 3.35608 16.4648 3.12233L17.3906 2.34315C17.6875 2.09641 17.8359 1.80097 17.8359 1.45684C17.8359 1.28802 17.9102 1.14192 18.0586 1.01855C18.207 0.895181 18.3828 0.833496 18.5859 0.833496C18.7891 0.833496 18.9648 0.895181 19.1133 1.01855C19.2617 1.14192 19.3359 1.28802 19.3359 1.45684C19.3359 1.78799 19.2617 2.10615 19.1133 2.41133C18.9648 2.71651 18.7461 2.98597 18.457 3.21972L17.5312 3.9989C17.2344 4.24564 17.0859 4.54108 17.0859 4.88522C17.0859 5.05404 17.0117 5.20013 16.8633 5.3235C16.7148 5.44687 16.5391 5.50856 16.3359 5.50856ZM11.8359 5.50856C11.6328 5.50856 11.457 5.44687 11.3086 5.3235C11.1602 5.20013 11.0859 5.05404 11.0859 4.88522C11.0859 4.55406 11.1602 4.2359 11.3086 3.93072C11.457 3.62555 11.6758 3.35608 11.9648 3.12233L12.8906 2.34315C13.1875 2.09641 13.3359 1.80097 13.3359 1.45684C13.3359 1.28802 13.4102 1.14192 13.5586 1.01855C13.707 0.895181 13.8828 0.833496 14.0859 0.833496C14.2891 0.833496 14.4648 0.895181 14.6133 1.01855C14.7617 1.14192 14.8359 1.28802 14.8359 1.45684C14.8359 1.78799 14.7617 2.10615 14.6133 2.41133C14.4648 2.71651 14.2461 2.98597 13.957 3.21972L13.0312 3.9989C12.7344 4.24564 12.5859 4.54108 12.5859 4.88522C12.5859 5.05404 12.5117 5.20013 12.3633 5.3235C12.2148 5.44687 12.0391 5.50856 11.8359 5.50856ZM21.5859 7.22275C21.8984 7.22275 22.1914 7.27144 22.4648 7.36884C22.7383 7.46624 22.9766 7.59935 23.1797 7.76817C23.3828 7.93699 23.543 8.13503 23.6602 8.36229C23.7773 8.58955 23.8359 8.83304 23.8359 9.09277V12.8328C23.8359 13.0925 23.7773 13.336 23.6602 13.5633C23.543 13.7906 23.3828 13.9886 23.1797 14.1574C22.9766 14.3262 22.7383 14.4593 22.4648 14.5567C22.1914 14.6541 21.8984 14.7028 21.5859 14.7028H20.918C20.9023 14.7483 20.8906 14.7905 20.8828 14.8295C20.875 14.8684 20.8594 14.9074 20.8359 14.9463V15.3262C20.8359 15.7547 20.7383 16.1573 20.543 16.5339C20.3477 16.9105 20.0781 17.2417 19.7344 17.5274C19.3906 17.8131 18.9922 18.0371 18.5391 18.1994C18.0859 18.3617 17.6016 18.4429 17.0859 18.4429H12.5859C11.9766 18.4429 11.4141 18.3293 10.8984 18.102C10.3828 17.8747 9.95312 17.5728 9.60938 17.1962H3.75C3.23438 17.1962 2.75 17.115 2.29688 16.9527C1.84375 16.7904 1.44531 16.5696 1.10156 16.2904C0.757812 16.0112 0.488281 15.6801 0.292969 15.297C0.0976563 14.9139 0 14.508 0 14.0795V13.4562H3C3 12.9432 3.11719 12.4595 3.35156 12.0049C3.58594 11.5504 3.91016 11.1543 4.32422 10.8167C4.73828 10.4791 5.21484 10.2096 5.75391 10.0083C6.29297 9.80701 6.875 9.70962 7.5 9.71611C7.73438 9.71611 7.96094 9.73234 8.17969 9.76481C8.39844 9.79727 8.61719 9.84273 8.83594 9.90117V5.97606H20.8359V7.22275H21.5859ZM7.5 10.9628C7.08594 10.9628 6.69922 11.0277 6.33984 11.1576C5.98047 11.2875 5.66016 11.466 5.37891 11.6933C5.09766 11.9205 4.88281 12.1835 4.73438 12.4822C4.58594 12.7809 4.50781 13.1055 4.5 13.4562H8.83594V11.2355C8.63281 11.1511 8.42188 11.0862 8.20312 11.0407C7.98438 10.9953 7.75 10.9693 7.5 10.9628ZM3.75 15.9495H8.91797C8.86328 15.7612 8.83594 15.5534 8.83594 15.3262V14.7028H1.62891C1.70703 14.8846 1.81641 15.0502 1.95703 15.1996C2.09766 15.3489 2.25781 15.482 2.4375 15.5989C2.61719 15.7158 2.82031 15.8002 3.04688 15.8521C3.27344 15.9041 3.50781 15.9365 3.75 15.9495ZM9.17578 16.6021V16.6118L9.1875 16.6313V16.6216L9.17578 16.6021ZM19.3359 15.3262V7.22275H10.3359V15.3262C10.3359 15.5859 10.3945 15.8294 10.5117 16.0567C10.6289 16.2839 10.7891 16.482 10.9922 16.6508C11.1953 16.8196 11.4336 16.9527 11.707 17.0501C11.9805 17.1475 12.2734 17.1962 12.5859 17.1962H17.0859C17.3984 17.1962 17.6914 17.1475 17.9648 17.0501C18.2383 16.9527 18.4766 16.8196 18.6797 16.6508C18.8828 16.482 19.043 16.2839 19.1602 16.0567C19.2773 15.8294 19.3359 15.5859 19.3359 15.3262ZM22.3359 12.8328V9.09277C22.3359 8.92395 22.2617 8.77785 22.1133 8.65448C21.9648 8.53111 21.7891 8.46943 21.5859 8.46943H20.8359V13.4562H21.5859C21.7891 13.4562 21.9648 13.3945 22.1133 13.2711C22.2617 13.1477 22.3359 13.0016 22.3359 12.8328Z" fill="black"/>
</svg>
