<svg width="24" height="24" viewBox="0 0 24 24" fill="none" xmlns="http://www.w3.org/2000/svg">
<path d="M16.8 16.2242C15.738 16.9903 14.4428 17.3636 13.136 17.2802H10.096V22.4002H7.05602V8.00022H13.328C14.5762 7.93404 15.8054 8.32671 16.784 9.10422C17.2406 9.54634 17.5937 10.0841 17.8177 10.6789C18.0418 11.2737 18.1314 11.9107 18.08 12.5442C18.1623 13.2147 18.0897 13.895 17.8678 14.533C17.6459 15.171 17.2806 15.7496 16.8 16.2242ZM14.4 11.0402C13.9376 10.7012 13.3726 10.5317 12.8 10.5602H10.096V14.8002H12.8C13.378 14.8308 13.9472 14.6487 14.4 14.2882C14.6033 14.0771 14.7597 13.8255 14.859 13.5498C14.9583 13.274 14.9981 12.9804 14.976 12.6882C15.0133 12.3877 14.9807 12.0827 14.8807 11.7969C14.7808 11.511 14.6163 11.2521 14.4 11.0402ZM23.056 6.73622C23.1436 6.54505 23.1525 6.32708 23.0806 6.12945C23.0088 5.93182 22.862 5.77044 22.672 5.68021L12 0.720215L1.26402 5.68021C1.16841 5.72434 1.08244 5.78686 1.011 5.86421C0.939559 5.94156 0.884055 6.03223 0.847654 6.13103C0.811254 6.22983 0.79467 6.33483 0.79885 6.44004C0.80303 6.54526 0.827892 6.64861 0.872016 6.74422C0.91614 6.83982 0.978662 6.92579 1.05601 6.99723C1.13336 7.06867 1.22403 7.12418 1.32283 7.16058C1.42163 7.19698 1.52664 7.21356 1.63185 7.20938C1.73706 7.2052 1.84041 7.18034 1.93602 7.13622L12 2.48021L22.064 7.12021C22.2552 7.20784 22.4732 7.21668 22.6708 7.14482C22.8684 7.07296 23.0298 6.92617 23.12 6.73622H23.056Z" fill="black"/>
</svg>
