<svg width="24" height="24" viewBox="0 0 24 24" fill="none" xmlns="http://www.w3.org/2000/svg">
<path d="M14 3H10C6.229 3 4.343 3 3.172 4.172C2.001 5.344 2 7.229 2 11C2 14.771 2 16.657 3.172 17.828C4.344 18.999 6.229 19 10 19H14C17.771 19 19.657 19 20.828 17.828C21.999 16.656 22 14.771 22 11C22 7.229 22 5.343 20.828 4.172C19.656 3.001 17.771 3 14 3Z" stroke="black" stroke-width="1.5" stroke-linecap="round" stroke-linejoin="round"/>
<path d="M16.9 15.5C16.9 15.0757 17.0686 14.6687 17.3686 14.3686C17.6687 14.0686 18.0757 13.9 18.5 13.9M13.7 15.5C13.7 14.227 14.2057 13.0061 15.1059 12.1059C16.0061 11.2057 17.227 10.7 18.5 10.7M10.5 15.5C10.5 13.3783 11.3429 11.3434 12.8431 9.84315C14.3434 8.34285 16.3783 7.5 18.5 7.5M18 19L19 21M6 19L5 21" stroke="black" stroke-width="1.5" stroke-linecap="round" stroke-linejoin="round"/>
</svg>
