<svg width="22" height="13" viewBox="0 0 22 13" fill="none" xmlns="http://www.w3.org/2000/svg">
<path d="M0 3.78368L2 5.44593C6.97 1.31525 15.03 1.31525 20 5.44593L22 3.78368C15.93 -1.26123 6.08 -1.26123 0 3.78368ZM8 10.4327L11 12.926L14 10.4327C13.6064 10.1047 13.1388 9.84444 12.624 9.66688C12.1092 9.48932 11.5574 9.39792 11 9.39792C10.4426 9.39792 9.89075 9.48932 9.37596 9.66688C8.86117 9.84444 8.39359 10.1047 8 10.4327ZM4 7.10817L6 8.77041C7.32646 7.66887 9.12487 7.05011 11 7.05011C12.8751 7.05011 14.6735 7.66887 16 8.77041L18 7.10817C14.14 3.90004 7.87 3.90004 4 7.10817Z" fill="black"/>
</svg>
