<svg width="540" height="164" viewBox="0 0 540 164" fill="none" xmlns="http://www.w3.org/2000/svg">
<g clip-path="url(#clip0_120_1833)">
<rect width="540" height="164" fill="black"/>
<path d="M517.083 3.87012H7.70264V143.393H517.083V3.87012Z" stroke="white" stroke-width="1.97741"/>
<path d="M534.287 22.667H24.9072V162.19H534.287V22.667Z" stroke="white" stroke-width="1.97741"/>
<path d="M128.868 109.082V50.3823H134.145V77.4708H162.656V50.3823H167.941V109.082H162.656V82.5022H134.145V109.082H128.868Z" fill="white"/>
<path d="M178.004 98.3501C176.999 95.6617 176.497 92.5304 176.497 88.9563C176.497 82.0782 178.425 76.6699 182.282 72.7315C186.138 68.7868 190.975 66.8145 196.792 66.8145C205.9 66.8145 211.88 70.5048 214.731 77.8854C215.793 80.5675 216.324 83.6988 216.324 87.2792C216.324 94.1573 214.395 99.5656 210.539 103.504C206.682 107.442 201.845 109.412 196.029 109.412C186.921 109.412 180.912 105.724 178.004 98.3501ZM181.943 88.3721V92.2258C181.943 94.7949 183.271 97.4927 185.928 100.319C188.585 103.14 192.008 104.55 196.198 104.55C200.394 104.55 203.89 103.055 206.685 100.065C209.48 97.075 210.878 93.0078 210.878 87.8633C210.878 82.7189 209.562 78.7365 206.93 75.9162C204.304 73.0895 200.881 71.6762 196.66 71.6762C192.439 71.6762 188.931 73.1743 186.135 76.1706C183.34 79.1605 181.943 83.2277 181.943 88.3721Z" fill="white"/>
<path d="M223.956 109.082V46.604L229.411 46.1895V109.082H223.956Z" fill="white"/>
<path d="M245.005 66.7292V109.081H239.559V67.1532L245.005 66.7292ZM242.074 55.9126H241.236C240.677 55.9126 240.102 55.5515 239.512 54.8291C238.927 54.1005 238.635 53.1771 238.635 52.059C238.635 50.9409 238.956 50.0333 239.596 49.336C240.237 48.6325 241.116 48.2808 242.234 48.2808C243.353 48.2808 244.263 48.6325 244.967 49.336C245.664 50.0333 246.013 50.9975 246.013 52.2286C246.013 53.4535 245.636 54.3737 244.882 54.9893C244.128 55.6048 243.192 55.9126 242.074 55.9126Z" fill="white"/>
<path d="M276.201 66.7296C279.499 66.7296 282.63 67.7095 285.595 69.6692V46.604L291.041 46.1895V107.15H290.626C288.893 107.879 286 108.438 281.949 108.827C277.891 109.217 275.08 109.412 273.516 109.412C268.817 109.412 264.932 108.24 261.861 105.897C257.558 102.65 255.407 97.3104 255.407 89.8796C255.407 82.4424 257.404 76.7264 261.399 72.7314C265.394 68.7302 270.328 66.7296 276.201 66.7296ZM285.595 73.2779C282.8 72.2101 280.058 71.6761 277.37 71.6761C272.231 71.6761 268.192 73.2433 265.253 76.3778C262.319 79.5059 260.853 83.95 260.853 89.71C260.853 95.47 262.445 99.5215 265.63 101.864C267.922 103.655 270.818 104.55 274.317 104.55C277.809 104.55 281.569 104.27 285.595 103.711V73.2779Z" fill="white"/>
<path d="M299.681 71.6759C305.774 68.6609 311.113 67.0685 315.698 66.8989C319.329 66.8989 322.137 67.3606 324.122 68.284C326.106 69.2073 327.714 70.4919 328.946 72.1376C330.177 73.7896 330.792 76.098 330.792 79.0628V109.082H325.337V105.897C317.68 108.24 312.762 109.411 310.582 109.411H310.328C305.296 109.411 301.857 107.875 300.01 104.804C299.345 103.686 298.968 102.596 298.88 101.534C298.798 100.473 298.757 99.5778 298.757 98.8492C298.757 96.8391 299.539 95.0364 301.103 93.4409C302.667 91.8454 304.539 90.7682 306.719 90.2091C310.412 89.2606 316.618 88.4221 325.337 87.6934V80.9001C325.337 74.8072 322.152 71.7607 315.783 71.7607C311.311 71.7607 306.446 73.0767 301.188 75.7086L299.681 71.6759ZM303.874 99.5181C303.874 103.544 306.64 105.558 312.174 105.558C316.59 105.558 320.978 104.606 325.337 102.703V90.7179C316.618 91.9491 311.226 92.8975 309.159 93.5634C305.635 94.6815 303.874 96.6664 303.874 99.5181Z" fill="white"/>
<path d="M335.994 67.1535L342.109 66.7295L354.602 105.143L370.705 67.1535H376.574L348.732 130.046H343.616L352.84 109.082H350.918L335.994 67.1535Z" fill="white"/>
<path d="M383.867 67.1533H414.479L415.233 72.0151L389.068 104.22H416.326L416.995 109.082H382.529L381.775 104.22L408.27 72.0151H383.952L383.867 67.1533Z" fill="white"/>
</g>
<defs>
<clipPath id="clip0_120_1833">
<rect width="540" height="164" fill="white"/>
</clipPath>
</defs>
</svg>
