<svg width="538" height="163" viewBox="0 0 538 163" fill="none" xmlns="http://www.w3.org/2000/svg">
<rect width="538" height="163" fill="#A0A0A0"/>
<path d="M515.083 1.87012H5.70264V141.393H515.083V1.87012Z" stroke="white" stroke-width="1.97741"/>
<path d="M532.287 20.667H22.9072V160.19H532.287V20.667Z" stroke="white" stroke-width="1.97741"/>
<path d="M126.868 107.082V48.3823H132.145V75.4708H160.656V48.3823H165.941V107.082H160.656V80.5022H132.145V107.082H126.868Z" fill="white"/>
<path d="M176.004 96.3501C174.999 93.6617 174.497 90.5304 174.497 86.9563C174.497 80.0782 176.425 74.6699 180.282 70.7315C184.138 66.7868 188.975 64.8145 194.792 64.8145C203.9 64.8145 209.88 68.5048 212.731 75.8854C213.793 78.5675 214.324 81.6988 214.324 85.2792C214.324 92.1573 212.395 97.5656 208.539 101.504C204.682 105.442 199.845 107.412 194.029 107.412C184.921 107.412 178.912 103.724 176.004 96.3501ZM179.943 86.3721V90.2258C179.943 92.7949 181.271 95.4927 183.928 98.3193C186.585 101.14 190.008 102.55 194.198 102.55C198.394 102.55 201.89 101.055 204.685 98.0649C207.48 95.075 208.878 91.0078 208.878 85.8633C208.878 80.7189 207.562 76.7365 204.93 73.9162C202.304 71.0895 198.881 69.6762 194.66 69.6762C190.439 69.6762 186.931 71.1743 184.135 74.1706C181.34 77.1605 179.943 81.2277 179.943 86.3721Z" fill="white"/>
<path d="M221.956 107.082V44.604L227.411 44.1895V107.082H221.956Z" fill="white"/>
<path d="M243.005 64.7292V107.081H237.559V65.1532L243.005 64.7292ZM240.074 53.9126H239.236C238.677 53.9126 238.102 53.5515 237.512 52.8291C236.927 52.1005 236.635 51.1771 236.635 50.059C236.635 48.9409 236.956 48.0333 237.596 47.336C238.237 46.6325 239.116 46.2808 240.234 46.2808C241.353 46.2808 242.263 46.6325 242.967 47.336C243.664 48.0333 244.013 48.9975 244.013 50.2286C244.013 51.4535 243.636 52.3737 242.882 52.9893C242.128 53.6048 241.192 53.9126 240.074 53.9126Z" fill="white"/>
<path d="M274.201 64.7296C277.499 64.7296 280.63 65.7095 283.595 67.6692V44.604L289.041 44.1895V105.15H288.626C286.893 105.879 284 106.438 279.949 106.827C275.891 107.217 273.08 107.412 271.516 107.412C266.817 107.412 262.932 106.24 259.861 103.897C255.558 100.65 253.407 95.3104 253.407 87.8796C253.407 80.4424 255.404 74.7264 259.399 70.7314C263.394 66.7302 268.328 64.7296 274.201 64.7296ZM283.595 71.2779C280.8 70.2101 278.058 69.6761 275.37 69.6761C270.231 69.6761 266.192 71.2433 263.253 74.3778C260.319 77.5059 258.853 81.95 258.853 87.71C258.853 93.47 260.445 97.5215 263.63 99.8644C265.922 101.655 268.818 102.55 272.317 102.55C275.809 102.55 279.569 102.27 283.595 101.711V71.2779Z" fill="white"/>
<path d="M297.681 69.6759C303.774 66.6609 309.113 65.0685 313.698 64.8989C317.329 64.8989 320.137 65.3606 322.122 66.284C324.106 67.2073 325.714 68.4919 326.946 70.1376C328.177 71.7896 328.792 74.098 328.792 77.0628V107.082H323.337V103.897C315.68 106.24 310.762 107.411 308.582 107.411H308.328C303.296 107.411 299.857 105.875 298.01 102.804C297.345 101.686 296.968 100.596 296.88 99.5344C296.798 98.4729 296.757 97.5778 296.757 96.8492C296.757 94.8391 297.539 93.0364 299.103 91.4409C300.667 89.8454 302.539 88.7682 304.719 88.2091C308.412 87.2606 314.618 86.4221 323.337 85.6934V78.9001C323.337 72.8072 320.152 69.7607 313.783 69.7607C309.311 69.7607 304.446 71.0767 299.188 73.7086L297.681 69.6759ZM301.874 97.5181C301.874 101.544 304.64 103.558 310.174 103.558C314.59 103.558 318.978 102.606 323.337 100.703V88.7179C314.618 89.9491 309.226 90.8975 307.159 91.5634C303.635 92.6815 301.874 94.6664 301.874 97.5181Z" fill="white"/>
<path d="M333.994 65.1535L340.109 64.7295L352.602 103.143L368.705 65.1535H374.574L346.732 128.046H341.616L350.84 107.082H348.918L333.994 65.1535Z" fill="white"/>
<path d="M381.867 65.1533H412.479L413.233 70.0151L387.068 102.22H414.326L414.995 107.082H380.529L379.775 102.22L406.27 70.0151H381.952L381.867 65.1533Z" fill="white"/>
</svg>
